<!-- Generator: Adobe Illustrator 21.0.0, SVG Export Plug-In  -->
<svg version="1.1"
	 xmlns="http://www.w3.org/2000/svg" xmlns:xlink="http://www.w3.org/1999/xlink" xmlns:a="http://ns.adobe.com/AdobeSVGViewerExtensions/3.0/"
	 x="0px" y="0px" width="228.6px" height="76.8px" viewBox="0 0 228.6 76.8" style="enable-background:new 0 0 228.6 76.8;"
	 xml:space="preserve">
<style type="text/css">
	.st0{fill:#FFFFFF;}
	.st1{fill:none;}
</style>
<defs>
</defs>
<g>
	<path class="st0" d="M0,56.6v8.2c0,11.9,6.2,11.9,9.6,11.9c1.2,0,4.2,0,6.3-2.2c1.5-1.6,2.3-3.9,2.3-7.1c0-0.4-0.3-0.7-0.7-0.7
		h-3.3c-0.4,0-0.6,0.3-0.7,0.6c-0.1,4.8-2.7,5.5-4.2,5.5c-2.5,0-4.8-0.6-4.8-7.6v-7.8c0-4.3,0.6-5.4,0.7-5.7c0,0,0.1-0.1,0.1-0.1
		l0-0.1c0.1-0.3,1.2-2,4-2c0.4,0,2.2,0.2,3,1.1c0.5,0.6,0.8,1.8,0.8,3.5l0,0.3c0,0.2,0.1,0.3,0.2,0.5c0.1,0.1,0.3,0.2,0.5,0.2h3.3
		c0.4,0,0.6-0.3,0.6-0.6l0-0.9c0-2.6-0.6-4.4-1.8-5.7c-1.3-1.4-3.4-2.1-6.2-2.1C3,45.7,0,49.1,0,56.6z"/>
	<path class="st0" d="M21.5,60.8L21.5,60.8c0,0.2,0.1,0.4,0.2,0.5c0.1,0.1,0.3,0.2,0.5,0.2h3c0.2,0,0.4-0.1,0.5-0.2
		c0.1-0.1,0.2-0.3,0.2-0.5l0-0.2c0-0.8,0.2-1.5,0.7-2c0.5-0.5,1.2-0.8,2.2-0.8c1,0,1.7,0.2,2.2,0.7c0.8,0.8,0.9,2.1,0.9,3.4
		c0,0,0,0.7,0,0.8c-3.3-0.1-6.9,0.2-9,2.2c-1.1,1.1-1.7,2.6-1.7,4.5c0,4.8,1.9,7.1,5.9,7.1c2.2,0,3.8-0.8,4.8-2.5c0,0.4,0,1.5,0,1.5
		c0,0.4,0.3,0.7,0.7,0.7h3c0.2,0,0.4-0.1,0.5-0.2c0.1-0.1,0.2-0.3,0.1-0.5c-0.2-1.7-0.4-3.2-0.4-4.5v-9.8c0-4.4-2.3-6.5-7-6.5
		C24,54.6,21.8,56.6,21.5,60.8z M24.9,69.8c0-3.4,2.8-3.7,6.4-3.7c0,0,0.2,0,0.3,0c0,0.1,0,0.7,0,0.7c0,2.6-0.5,4.4-1.5,5.4
		c-0.6,0.6-1.4,1-2.4,1C26,73.1,24.9,71.8,24.9,69.8z"/>
	<path class="st0" d="M49.5,54.7L49.5,54.7c-2.7,0-4.4,0.5-5.7,2.5c0-0.4,0-1.5,0-1.5c0-0.4-0.3-0.7-0.7-0.7h-2.8
		c-0.4,0-0.7,0.3-0.7,0.7v19.8c0,0.4,0.3,0.7,0.7,0.7h2.8c0.4,0,0.7-0.3,0.7-0.7V63.8c0-3.4,1.4-5.2,4.2-5.2c0,0,1.3,0.1,1.3,0.1
		l0,0l0.1,0c0.2,0,0.4,0,0.5-0.2c0.1-0.1,0.2-0.3,0.2-0.5v-2.8c0-0.2-0.1-0.3-0.2-0.5C49.9,54.7,49.7,54.6,49.5,54.7z"/>
	<path class="st0" d="M43.3,58.4L43.3,58.4L43.3,58.4z"/>
	<path class="st0" d="M53.8,46.3c-0.4,0-0.7,0.3-0.7,0.7v28.6c0,0.4,0.3,0.7,0.7,0.7h2.8c0.4,0,0.7-0.3,0.7-0.7c0,0,0-0.8,0-1.2
		c1.2,1.5,2.5,2.2,4.4,2.2c3.2,0,7-1.2,7-10.6c0-6-0.5-11.3-7.1-11.3c-1.7,0-3.1,0.7-4.2,2c0-0.4,0-9.7,0-9.7c0-0.4-0.3-0.7-0.7-0.7
		H53.8z M58.5,72.4L58.5,72.4c-1.4-1.4-1.4-4.6-1.4-6.9l0-0.7c0-3.3,0.4-6.7,3.5-6.7c3.1,0,3.7,2.4,3.7,7.9c0,3.8-0.3,7.1-3.8,7.1
		C59.7,73.1,59,72.9,58.5,72.4z"/>
	<path class="st0" d="M71.4,65.9c0,9.8,4.2,10.7,8.1,10.7c3.9,0,8.1-0.8,8.1-10.7c0-5.9-0.6-11.3-8.1-11.3
		C72.1,54.6,71.4,60,71.4,65.9z M75.7,64.5c0-5.3,1.6-6.4,3.9-6.4c2.3,0,3.9,1.1,3.9,6.4c0,6.7-0.9,8.6-3.9,8.6
		C76.5,73.1,75.7,71.2,75.7,64.5z"/>
	<path class="st0" d="M95.1,57.1c0-0.4,0-1.4,0-1.4c0-0.4-0.3-0.7-0.7-0.7h-2.9c-0.2,0-0.4,0.1-0.5,0.2c-0.1,0.1-0.2,0.3-0.2,0.5
		c0.1,1.5,0.2,2.8,0.2,3.9v15.9c0,0.4,0.3,0.7,0.7,0.7h2.7c0.4,0,0.7-0.3,0.7-0.7V63.7c0-3.9,1.2-5.6,3.8-5.6c2.2,0,3.2,1.1,3.2,3.6
		v13.8c0,0.4,0.3,0.7,0.7,0.7h2.7c0.4,0,0.6-0.3,0.6-0.7V61.7c0-4.9-1.7-7-5.8-7C97.8,54.6,96.3,55.4,95.1,57.1z"/>
	<path class="st0" d="M121,46.3c-0.4,0-0.7,0.3-0.7,0.7v28.6c0,0.4,0.3,0.7,0.7,0.7h3.2c0.4,0,0.7-0.3,0.7-0.7c0,0,0-12.5,0-12.7
		c0.2,0,9.5,0,9.5,0c0.4,0,0.7-0.3,0.7-0.7v-2.7c0-0.4-0.3-0.7-0.7-0.7c0,0-9.3,0-9.5,0c0-0.2,0-8.4,0-8.6c0.2,0,10.1,0,10.1,0
		c0.4,0,0.6-0.3,0.6-0.7v-2.7c0-0.4-0.3-0.7-0.6-0.7H121z"/>
	<path class="st0" d="M140,46.3c-0.4,0-0.7,0.3-0.7,0.7v3c0,0.4,0.3,0.7,0.7,0.7h3.2c0.4,0,0.7-0.3,0.7-0.7v-3
		c0-0.4-0.3-0.7-0.7-0.7H140z M140.2,55c-0.4,0-0.7,0.3-0.7,0.7v19.8c0,0.4,0.3,0.7,0.7,0.7h2.7c0.4,0,0.7-0.3,0.7-0.7V55.7
		c0-0.4-0.3-0.7-0.7-0.7H140.2z"/>
	<path class="st0" d="M160.7,55c-0.3,0-0.6,0.2-0.6,0.5c0,0-3.9,13.7-4.5,15.9c-0.2-0.6-4.2-15.9-4.2-15.9c-0.1-0.3-0.3-0.5-0.6-0.5
		h-3.1c-0.2,0-0.4,0.1-0.5,0.3c-0.1,0.2-0.2,0.4-0.1,0.6l5.9,19.8c0.1,0.3,0.3,0.5,0.6,0.5h3.9c0.3,0,0.5-0.2,0.6-0.5l6.2-19.8
		c0.1-0.2,0-0.4-0.1-0.6c-0.1-0.2-0.3-0.3-0.5-0.3H160.7z"/>
	<path class="st0" d="M165.6,65.9c0,9.8,4.2,10.7,8.1,10.7c4.6,0,7.3-2.4,7.4-6.7c0-0.2-0.1-0.3-0.2-0.5c-0.1-0.1-0.3-0.2-0.5-0.2
		h-3.1c-0.3,0-0.6,0.3-0.6,0.6c-0.2,2-1.4,3.3-3.2,3.3c-1.9,0-3.6-0.5-3.7-6.1c0.2,0,10.8,0,10.8,0c0.4,0,0.7-0.3,0.7-0.7v-1.5
		c0-7.6-2-10.3-7.6-10.3C166.3,54.6,165.6,60,165.6,65.9z M173.5,57.9c2,0,3.6,0.5,3.7,5.9c-0.2,0-7,0-7.2,0
		C170.1,58.6,171.7,57.9,173.5,57.9z"/>
	<path class="st1" d="M213.9,33.3h-23.8c-1.1,0-1.3,0.5-0.4,1.2l10.6,7.7c0.9,0.7,2.4,0.7,3.3,0l10.6-7.7
		C215.2,33.8,215,33.3,213.9,33.3z"/>
	<path class="st1" d="M219.1,22.1c-0.4-1.1-1.6-1.9-2.7-1.9h-20.9c-1.1,0-1.8-0.9-1.4-2l0.9-2.9c0.3-1.1,1.5-2,2.7-2h16.5
		c1.1,0,1.8-0.9,1.4-2l-0.9-2.8c-0.3-1.1-1.6-2-2.7-2h-20.1c-1.1,0-2.4,0.9-2.7,2L183.9,25c-0.4,1.1,0.3,2,1.4,2h33.3
		c1.1,0,1.8-0.9,1.4-2L219.1,22.1z"/>
	<path class="st0" d="M228.5,29.5l-8.7-26.8C219.3,1.2,217.6,0,216,0h-28.2c-1.6,0-3.3,1.2-3.8,2.7l-8.7,26.8
		c-0.5,1.5,0.2,3.5,1.5,4.4l22.8,16.6c1.3,0.9,3.4,0.9,4.7,0L227,34C228.3,33,229,31.1,228.5,29.5z M214.3,34.5l-10.6,7.7
		c-0.9,0.7-2.4,0.7-3.3,0l-10.6-7.7c-0.9-0.7-0.7-1.2,0.4-1.2h23.8C215,33.3,215.2,33.8,214.3,34.5z M218.6,27h-33.3
		c-1.1,0-1.8-0.9-1.4-2l5.3-16.4c0.3-1.1,1.6-2,2.7-2H212c1.1,0,2.3,0.9,2.7,2l0.9,2.8c0.4,1.1-0.3,2-1.4,2h-16.5
		c-1.1,0-2.3,0.9-2.7,2l-0.9,2.9c-0.3,1.1,0.3,2,1.4,2h20.9c1.1,0,2.3,0.9,2.7,1.9l0.9,2.9C220.4,26.1,219.8,27,218.6,27z"/>
</g>
</svg>