<!-- Generator: Adobe Illustrator 21.0.0, SVG Export Plug-In  -->
<svg version="1.1"
	 xmlns="http://www.w3.org/2000/svg" xmlns:xlink="http://www.w3.org/1999/xlink" xmlns:a="http://ns.adobe.com/AdobeSVGViewerExtensions/3.0/"
	 x="0px" y="0px" width="323.4px" height="323.4px" viewBox="0 0 323.4 323.4" style="enable-background:new 0 0 323.4 323.4;"
	 xml:space="preserve">
<style type="text/css">
	.st0{fill:#F15B28;stroke:#676768;stroke-miterlimit:10;}
	.st1{opacity:0.5;fill:#FFFFFF;stroke:#676768;stroke-miterlimit:10;}
	.st2{fill:#29AAE1;stroke:#676768;stroke-miterlimit:10;}
	.st3{opacity:0.8;fill:#29AAE1;stroke:#676768;stroke-miterlimit:10;}
	.st4{opacity:0.5;fill:#29AAE1;stroke:#676768;stroke-miterlimit:10;}
	.st5{fill:#2E3192;stroke:#676768;stroke-miterlimit:10;}
</style>
<defs>
</defs>
<g>
	<path class="st0" d="M94.7,277.8l-13.6,23.6c23.7,13.7,51.2,21.6,80.6,21.6v-27.2C137.3,295.7,114.4,289.2,94.7,277.8z"/>
	<path class="st1" d="M108.3,254.2l-13.6,23.6c19.7,11.4,42.6,17.9,67,17.9v-27.2C142.2,268.5,124,263.3,108.3,254.2z"/>
	<path class="st1" d="M121.9,230.7l-13.6,23.6c15.7,9.1,34,14.3,53.4,14.3v-27.2C147.2,241.3,133.6,237.4,121.9,230.7z"/>
	<path class="st1" d="M135.5,207.1l-13.6,23.6c11.7,6.8,25.3,10.7,39.8,10.7v-27.2C152.1,214.1,143.2,211.6,135.5,207.1z"/>
	<path class="st1" d="M149.1,183.6l-13.6,23.5c7.7,4.5,16.7,7,26.2,7v-27.2C157.1,186.9,152.8,185.7,149.1,183.6z"/>
</g>
<g>
	<path class="st2" d="M45.6,228.7l-23.6,13.6c14.2,24.5,34.5,44.9,59,59l13.6-23.6C74.4,266,57.4,249,45.6,228.7z"/>
	<path class="st3" d="M69.2,215.1l-23.6,13.6C57.4,249,74.4,266,94.7,277.8l13.6-23.6C92.1,244.8,78.6,231.3,69.2,215.1z"/>
	<path class="st1" d="M92.7,201.5l-23.6,13.6c9.4,16.2,22.9,29.7,39.1,39.1l13.6-23.6C109.8,223.7,99.7,213.6,92.7,201.5z"/>
	<path class="st1" d="M116.3,187.9l-23.6,13.6c7,12.1,17.1,22.2,29.1,29.1l13.6-23.6C127.5,202.5,120.9,195.9,116.3,187.9z"/>
	<path class="st1" d="M139.8,174.3l-23.5,13.6c4.6,8,11.2,14.6,19.2,19.2l13.6-23.5C145.3,181.3,142.1,178.1,139.8,174.3z"/>
</g>
<g>
	<path class="st2" d="M161.7,295.7v27.2c29.4,0,56.9-7.9,80.6-21.6l-13.6-23.6C209,289.2,186.1,295.7,161.7,295.7z"/>
	<path class="st3" d="M161.7,268.5v27.2c24.4,0,47.3-6.5,67-17.9l-13.6-23.6C199.4,263.3,181.2,268.5,161.7,268.5z"/>
	<path class="st1" d="M161.7,241.3v27.2c19.5,0,37.7-5.2,53.4-14.3l-13.6-23.6C189.8,237.4,176.2,241.3,161.7,241.3z"/>
	<path class="st1" d="M161.7,214.1v27.2c14.5,0,28.1-3.9,39.8-10.7l-13.6-23.6C180.2,211.6,171.3,214.1,161.7,214.1z"/>
	<path class="st1" d="M161.7,186.9v27.2c9.6,0,18.5-2.6,26.2-7l-13.6-23.5C170.6,185.7,166.3,186.9,161.7,186.9z"/>
</g>
<g>
	<path class="st2" d="M94.7,45.6L81.1,22.1c-24.5,14.2-44.9,34.5-59,59l23.6,13.6C57.4,74.4,74.4,57.4,94.7,45.6z"/>
	<path class="st3" d="M108.3,69.2L94.7,45.6C74.4,57.4,57.4,74.4,45.6,94.7l23.6,13.6C78.6,92.1,92.1,78.6,108.3,69.2z"/>
	<path class="st1" d="M121.9,92.7l-13.6-23.6c-16.2,9.4-29.7,22.9-39.1,39.1l23.6,13.6C99.7,109.8,109.8,99.7,121.9,92.7z"/>
	<path class="st1" d="M135.5,116.3l-13.6-23.6c-12.1,7-22.2,17.1-29.1,29.1l23.6,13.6C120.9,127.5,127.5,120.9,135.5,116.3z"/>
	<path class="st1" d="M149.1,139.8l-13.6-23.5c-8,4.6-14.6,11.2-19.2,19.2l23.5,13.6C142.1,145.3,145.3,142.1,149.1,139.8z"/>
</g>
<g>
	<path class="st2" d="M27.7,161.7H0.5c0,29.4,7.9,56.9,21.6,80.6l23.6-13.6C34.2,209,27.7,186.1,27.7,161.7z"/>
	<path class="st3" d="M54.9,161.7H27.7c0,24.4,6.5,47.3,17.9,67l23.6-13.6C60.1,199.4,54.9,181.2,54.9,161.7z"/>
	<path class="st4" d="M82.1,161.7H54.9c0,19.5,5.2,37.7,14.3,53.4l23.6-13.6C86,189.8,82.1,176.2,82.1,161.7z"/>
	<path class="st1" d="M109.3,161.7H82.1c0,14.5,3.9,28.1,10.7,39.8l23.6-13.6C111.8,180.2,109.3,171.3,109.3,161.7z"/>
	<path class="st1" d="M136.5,161.7h-27.2c0,9.6,2.6,18.5,7,26.2l23.5-13.6C137.7,170.6,136.5,166.3,136.5,161.7z"/>
</g>
<g>
	<path class="st2" d="M45.6,94.7L22.1,81.1C8.4,104.8,0.5,132.3,0.5,161.7h27.2C27.7,137.3,34.2,114.4,45.6,94.7z"/>
	<path class="st3" d="M69.2,108.3L45.6,94.7c-11.4,19.7-17.9,42.6-17.9,67h27.2C54.9,142.2,60.1,124,69.2,108.3z"/>
	<path class="st1" d="M92.7,121.9l-23.6-13.6c-9.1,15.7-14.3,34-14.3,53.4h27.2C82.1,147.2,86,133.6,92.7,121.9z"/>
	<path class="st1" d="M116.3,135.5l-23.6-13.6c-6.8,11.7-10.7,25.3-10.7,39.8h27.2C109.3,152.1,111.8,143.2,116.3,135.5z"/>
	<path class="st1" d="M139.8,149.1l-23.5-13.6c-4.5,7.7-7,16.7-7,26.2h27.2C136.5,157.1,137.7,152.8,139.8,149.1z"/>
</g>
<g>
	<path class="st2" d="M228.7,277.8l13.6,23.6c24.5-14.2,44.9-34.5,59-59l-23.6-13.6C266,249,249,266,228.7,277.8z"/>
	<path class="st3" d="M215.1,254.2l13.6,23.6C249,266,266,249,277.8,228.7l-23.6-13.6C244.8,231.3,231.3,244.8,215.1,254.2z"/>
	<path class="st1" d="M201.5,230.7l13.6,23.6c16.2-9.4,29.7-22.9,39.1-39.1l-23.6-13.6C223.7,213.6,213.6,223.7,201.5,230.7z"/>
	<path class="st1" d="M187.9,207.1l13.6,23.6c12.1-7,22.2-17.1,29.1-29.1l-23.6-13.6C202.5,195.9,195.9,202.5,187.9,207.1z"/>
	<path class="st1" d="M174.3,183.6l13.6,23.5c8-4.6,14.6-11.2,19.2-19.2l-23.5-13.6C181.3,178.1,178.1,181.3,174.3,183.6z"/>
</g>
<g>
	<path class="st0" d="M161.7,27.7V0.5c-29.4,0-56.9,7.9-80.6,21.6l13.6,23.6C114.4,34.2,137.3,27.7,161.7,27.7z"/>
	<path class="st1" d="M161.7,54.9V27.7c-24.4,0-47.3,6.5-67,17.9l13.6,23.6C124,60.1,142.2,54.9,161.7,54.9z"/>
	<path class="st1" d="M161.7,82.1V54.9c-19.5,0-37.7,5.2-53.4,14.3l13.6,23.6C133.6,86,147.2,82.1,161.7,82.1z"/>
	<path class="st1" d="M161.7,109.3V82.1c-14.5,0-28.1,3.9-39.8,10.7l13.6,23.6C143.2,111.8,152.1,109.3,161.7,109.3z"/>
	<path class="st1" d="M149.1,139.8c3.7-2.1,8-3.4,12.6-3.4v-27.2c-9.6,0-18.5,2.6-26.2,7L149.1,139.8z"/>
</g>
<g>
	<path class="st2" d="M228.7,45.6l13.6-23.6C218.6,8.4,191.1,0.5,161.7,0.5v27.2C186.1,27.7,209,34.2,228.7,45.6z"/>
	<path class="st3" d="M215.1,69.2l13.6-23.6c-19.7-11.4-42.6-17.9-67-17.9v27.2C181.2,54.9,199.4,60.1,215.1,69.2z"/>
	<path class="st1" d="M201.5,92.7l13.6-23.6c-15.7-9.1-34-14.3-53.4-14.3v27.2C176.2,82.1,189.8,86,201.5,92.7z"/>
	<path class="st1" d="M161.7,109.3c9.6,0,18.5,2.6,26.2,7l13.6-23.6c-11.7-6.8-25.3-10.7-39.8-10.7V109.3z"/>
	<path class="st1" d="M174.3,139.8l13.6-23.5c-7.7-4.5-16.7-7-26.2-7v27.2C166.3,136.5,170.6,137.7,174.3,139.8z"/>
</g>
<g>
	<path class="st0" d="M295.7,161.7c0,24.4-6.5,47.3-17.9,67l23.6,13.6c13.7-23.7,21.6-51.2,21.6-80.6H295.7z"/>
	<path class="st1" d="M254.2,215.1l23.6,13.6c11.4-19.7,17.9-42.6,17.9-67h-27.2C268.5,181.2,263.3,199.4,254.2,215.1z"/>
	<path class="st1" d="M230.7,201.5l23.6,13.6c9.1-15.7,14.3-34,14.3-53.4h-27.2C241.3,176.2,237.4,189.8,230.7,201.5z"/>
	<path class="st1" d="M207.1,187.9l23.6,13.6c6.8-11.7,10.7-25.3,10.7-39.8h-27.2C214.1,171.3,211.6,180.2,207.1,187.9z"/>
	<path class="st1" d="M183.6,174.3l23.5,13.6c4.5-7.7,7-16.7,7-26.2h-27.2C186.9,166.3,185.7,170.6,183.6,174.3z"/>
</g>
<g>
	<path class="st2" d="M277.8,94.7l23.6-13.6c-14.2-24.5-34.5-44.9-59-59l-13.6,23.6C249,57.4,266,74.4,277.8,94.7z"/>
	<path class="st3" d="M254.2,108.3l23.6-13.6C266,74.4,249,57.4,228.7,45.6l-13.6,23.6C231.3,78.6,244.8,92.1,254.2,108.3z"/>
	<path class="st4" d="M215.1,69.2l-13.6,23.6c12.1,7,22.2,17.1,29.1,29.1l23.6-13.6C244.8,92.1,231.3,78.6,215.1,69.2z"/>
	<path class="st1" d="M207.1,135.5l23.6-13.6c-7-12.1-17.1-22.2-29.1-29.1l-13.6,23.6C195.9,120.9,202.5,127.5,207.1,135.5z"/>
	<path class="st1" d="M183.6,149.1l23.5-13.6c-4.6-8-11.2-14.6-19.2-19.2l-13.6,23.5C178.1,142.1,181.3,145.3,183.6,149.1z"/>
</g>
<g>
	<path class="st2" d="M295.7,161.7h27.2c0-29.4-7.9-56.9-21.6-80.6l-23.6,13.6C289.2,114.4,295.7,137.3,295.7,161.7z"/>
	<path class="st3" d="M254.2,108.3c9.1,15.7,14.3,34,14.3,53.4h27.2c0-24.4-6.5-47.3-17.9-67L254.2,108.3z"/>
	<path class="st1" d="M241.3,161.7h27.2c0-19.5-5.2-37.7-14.3-53.4l-23.6,13.6C237.4,133.6,241.3,147.2,241.3,161.7z"/>
	<path class="st1" d="M214.1,161.7h27.2c0-14.5-3.9-28.1-10.7-39.8l-23.6,13.6C211.6,143.2,214.1,152.1,214.1,161.7z"/>
	<path class="st1" d="M186.9,161.7h27.2c0-9.6-2.6-18.5-7-26.2l-23.5,13.6C185.7,152.8,186.9,157.1,186.9,161.7z"/>
</g>
<circle class="st5" cx="161.7" cy="161.7" r="26.2"/>
</svg>